<svg width="64" height="64" viewBox="0 0 64 64" fill="none" xmlns="http://www.w3.org/2000/svg">
  <!-- Sol central -->
  <circle cx="32" cy="32" r="12" fill="#FF9500"/>

  <!-- Raios do sol -->
  <g fill="#FFA500">
    <!-- Raio superior -->
    <rect x="30" y="4" width="4" height="10" rx="2"/>
    <!-- Raio inferior -->
    <rect x="30" y="50" width="4" height="10" rx="2"/>
    <!-- Raio esquerda -->
    <rect x="4" y="30" width="10" height="4" rx="2"/>
    <!-- Raio direita -->
    <rect x="50" y="30" width="10" height="4" rx="2"/>

    <!-- Raios diagonais -->
    <rect x="12" y="12" width="4" height="10" rx="2" transform="rotate(-45 14 17)"/>
    <rect x="48" y="12" width="4" height="10" rx="2" transform="rotate(45 50 17)"/>
    <rect x="12" y="48" width="4" height="10" rx="2" transform="rotate(-135 14 53)"/>
    <rect x="48" y="48" width="4" height="10" rx="2" transform="rotate(135 50 53)"/>
  </g>

  <!-- Brilho no centro -->
  <circle cx="28" cy="28" r="4" fill="#FFD700" opacity="0.6"/>
</svg>
